# Blender v2.76 (sub 0) OBJ File: 'full_1x1_top_aligned_shaded.blend'
# www.blender.org
mtllib full_top_type_0.mtl
o Cube
v 0.970000 1.200000 -0.030000
v 0.030000 1.200000 -0.030000
v 0.030000 1.200000 -0.970000
v 0.500000 1.200000 -0.800000
v 0.800000 1.200000 -0.500000
v 0.970000 1.200000 -0.970000
v 0.650000 1.200000 -0.759807
v 0.759808 1.200000 -0.650000
v 0.500000 1.200000 -0.200000
v 0.759807 1.200000 -0.350000
v 0.650000 1.200000 -0.240192
v 0.200000 1.200000 -0.500000
v 0.240192 1.200000 -0.650000
v 0.350000 1.200000 -0.759807
v 0.350000 1.200000 -0.240193
v 0.240192 1.200000 -0.350000
v 0.800000 1.400000 -0.500000
v 0.500000 1.400000 -0.800000
v 0.759807 1.400000 -0.650000
v 0.650000 1.400000 -0.759807
v 0.500000 1.400000 -0.200000
v 0.650000 1.400000 -0.240192
v 0.759807 1.400000 -0.350000
v 0.200000 1.400000 -0.500000
v 0.350000 1.400000 -0.759807
v 0.240192 1.400000 -0.650000
v 0.240192 1.400000 -0.350000
v 0.350000 1.400000 -0.240192
v 0.500000 1.200000 -0.800000
v 0.650000 1.200000 -0.759807
v 0.759808 1.200000 -0.650000
v 0.800000 1.200000 -0.500000
v 0.759807 1.200000 -0.350000
v 0.650000 1.200000 -0.240192
v 0.500000 1.200000 -0.200000
v 0.200000 1.200000 -0.500000
v 0.240192 1.200000 -0.650000
v 0.350000 1.200000 -0.759807
v 0.350000 1.200000 -0.240193
v 0.240192 1.200000 -0.350000
v 0.759807 1.400000 -0.350000
v 0.650000 1.400000 -0.240192
v 0.500000 1.400000 -0.200000
v 0.350000 1.400000 -0.240192
v 0.240192 1.400000 -0.350000
v 0.500000 1.400000 -0.800000
v 0.650000 1.400000 -0.759807
v 0.759807 1.400000 -0.650000
v 0.800000 1.400000 -0.500000
v 0.240192 1.400000 -0.650000
v 0.350000 1.400000 -0.759807
v 0.200000 1.400000 -0.500000
vn 0.000000 1.000000 0.000000
vn 0.866000 0.000000 0.500000
vn 0.500000 0.000000 0.866000
vn 0.000000 0.000000 1.000000
vn -0.866000 0.000000 0.500000
vn -0.500000 0.000000 0.866000
vn 0.000000 0.000000 -1.000000
vn 0.500000 0.000000 -0.866000
vn 0.866000 0.000000 -0.500000
vn 1.000000 0.000000 0.000000
vn -0.500000 0.000000 -0.866000
vn -0.866000 0.000000 -0.500000
vn -1.000000 0.000000 0.000000
usemtl Material
s 1
f 29//1 30//1 6//1
f 30//1 31//1 6//1
f 31//1 32//1 6//1
f 10//2 41//2 42//3
f 11//3 42//3 43//4
f 45//5 40//5 39//6
f 4//7 46//7 47//8
f 7//8 47//8 48//9
f 48//9 49//10 5//10
f 51//11 38//11 37//12
f 37//12 36//13 52//13
f 18//1 27//1 23//1
f 2//1 1//1 35//1
f 6//1 3//1 29//1
f 3//1 2//1 12//1
f 32//1 33//1 1//1
f 33//1 34//1 1//1
f 34//1 35//1 1//1
f 12//1 13//1 3//1
f 13//1 14//1 3//1
f 14//1 29//1 3//1
f 35//1 15//1 2//1
f 15//1 16//1 2//1
f 16//1 12//1 2//1
f 5//10 49//10 41//2
f 52//13 36//13 40//5
f 44//6 39//6 9//4
f 46//7 4//7 38//11
f 1//1 6//1 32//1
f 11//3 10//2 42//3
f 9//4 11//3 43//4
f 44//6 45//5 39//6
f 7//8 4//7 47//8
f 8//9 7//8 48//9
f 8//9 48//9 5//10
f 50//12 51//11 37//12
f 50//12 37//12 52//13
f 23//1 17//1 19//1
f 19//1 20//1 18//1
f 18//1 25//1 27//1
f 26//1 24//1 27//1
f 27//1 28//1 21//1
f 21//1 22//1 27//1
f 23//1 19//1 18//1
f 25//1 26//1 27//1
f 27//1 22//1 23//1
f 10//2 5//10 41//2
f 45//5 52//13 40//5
f 43//4 44//6 9//4
f 51//11 46//7 38//11
