# Blender v2.76 (sub 0) OBJ File: 'flat_1x1_bottom_shaded.blend'
# www.blender.org
mtllib bottom.mtl
o Cube
v 0.470000 -0.200000 -0.500000
v 0.500000 -0.200000 -0.470000
v 0.500000 -0.200000 0.470000
v 0.470000 -0.200000 0.500000
v -0.470000 -0.200000 0.500000
v -0.500000 -0.200000 0.470000
v -0.500000 -0.200000 -0.470000
v -0.470000 -0.200000 -0.500000
vn 0.000000 -1.000000 0.000000
usemtl Material
s off
f 4//1 6//1 2//1
f 8//1 1//1 2//1
f 2//1 3//1 4//1
f 4//1 5//1 6//1
f 6//1 7//1 8//1
f 8//1 2//1 6//1
