# Blender v2.76 (sub 0) OBJ File: 'full_1x1_bottom_aligned_shaded.blend'
# www.blender.org
mtllib full_bottom_type_1.mtl
o Cube
v 0.970000 0.000000 0.000000
v 1.000000 0.000000 0.030000
v 1.000000 0.000000 0.970000
v 0.970000 0.000000 1.000000
v 0.030000 0.000000 1.000000
v 0.000000 0.000000 0.970000
v 0.000000 0.000000 0.030000
v 0.030000 0.000000 0.000000
vn 0.000000 -1.000000 0.000000
usemtl Material
s 1
f 4//1 6//1 2//1
f 8//1 1//1 2//1
f 2//1 3//1 4//1
f 4//1 5//1 6//1
f 6//1 7//1 8//1
f 8//1 2//1 6//1
