# Blender v2.76 (sub 0) OBJ File: '1x1_Brick_Low_Poly.blend'
# www.blender.org
mtllib 1x1_Brick_Low_Poly.mtl
o Cube_Cube.001
v -0.470000 -0.600000 0.500000
v -0.500000 -0.600000 0.470000
v -0.500000 -0.600000 -0.470000
v -0.470000 -0.600000 -0.500000
v 0.500000 -0.600000 0.470000
v 0.470000 -0.600000 0.500000
v 0.470000 -0.600000 -0.500000
v 0.500000 -0.600000 -0.470000
v -0.470000 0.570000 0.500000
v -0.470000 0.600000 0.470000
v -0.500000 0.570000 0.470000
v -0.470000 0.600000 -0.470000
v -0.470000 0.570000 -0.500000
v -0.500000 0.570000 -0.470000
v 0.470000 0.600000 -0.470000
v 0.500000 0.570000 -0.470000
v 0.470000 0.570000 -0.500000
v 0.470000 0.600000 0.470000
v 0.470000 0.570000 0.500000
v 0.500000 0.570000 0.470000
v -0.125000 0.600000 0.300000
v -0.300000 0.600000 0.125000
v -0.423744 0.600000 0.423744
v -0.300000 0.600000 -0.125000
v -0.125000 0.600000 -0.300000
v -0.423744 0.600000 -0.423744
v 0.300000 0.600000 0.125000
v 0.125000 0.600000 0.300000
v 0.423744 0.600000 0.423744
v 0.125000 0.600000 -0.300000
v 0.300000 0.600000 -0.125000
v 0.423744 0.600000 -0.423744
v -0.300000 0.800000 0.125000
v -0.125000 0.800000 0.300000
v -0.125000 0.800000 -0.300000
v -0.300000 0.800000 -0.125000
v 0.300000 0.800000 -0.125000
v 0.125000 0.800000 -0.300000
v 0.125000 0.800000 0.300000
v 0.300000 0.800000 0.125000
v -0.500000 -0.600000 0.470000
v -0.470000 -0.600000 0.500000
v -0.470000 -0.600000 -0.500000
v -0.500000 -0.600000 -0.470000
v 0.500000 -0.600000 -0.470000
v 0.470000 -0.600000 -0.500000
v 0.470000 -0.600000 0.500000
v 0.500000 -0.600000 0.470000
v -0.125000 0.600000 0.300000
v -0.300000 0.600000 0.125000
v -0.300000 0.600000 -0.125000
v -0.125000 0.600000 -0.300000
v 0.300000 0.600000 0.125000
v 0.125000 0.600000 0.300000
v 0.125000 0.600000 -0.300000
v 0.300000 0.600000 -0.125000
v 0.300000 0.800000 0.125000
v 0.125000 0.800000 0.300000
v -0.125000 0.800000 0.300000
v -0.300000 0.800000 0.125000
v -0.300000 0.800000 -0.125000
v -0.125000 0.800000 -0.300000
v 0.125000 0.800000 -0.300000
v 0.300000 0.800000 -0.125000
vn 0.000000 -1.000000 0.000000
vn 1.000000 0.000000 0.000000
vn 0.000000 1.000000 0.000000
vn 0.000000 0.000000 -1.000000
vn 0.000000 0.000000 1.000000
vn -1.000000 0.000000 0.000000
vn -0.577400 0.577400 0.577300
vn -0.577400 0.577400 -0.577300
vn 0.577400 0.577400 -0.577300
vn 0.577400 0.577400 0.577300
vn -0.707100 0.000000 0.707100
vn -0.707100 0.707100 0.000000
vn -0.707100 0.000000 -0.707100
vn 0.000000 0.707100 -0.707100
vn 0.707100 0.000000 -0.707100
vn 0.707100 0.707100 0.000000
vn 0.707100 0.000000 0.707100
vn 0.000000 0.707100 0.707100
usemtl None
s off
f 4//1 8//1 6//1
f 20//2 48//2 45//2
f 52//3 15//3 12//3
f 17//4 46//4 43//4
f 9//5 1//5 47//5
f 22//6 33//6 61//6
f 25//4 62//4 38//4
f 63//3 36//3 59//3
f 28//5 58//5 34//5
f 31//2 37//2 57//2
f 56//3 18//3 15//3
f 54//3 10//3 18//3
f 9//7 10//7 11//7
f 12//8 13//8 14//8
f 15//9 16//9 17//9
f 18//10 19//10 20//10
f 9//11 11//11 2//11
f 12//12 14//12 11//12
f 43//13 44//13 14//13
f 15//14 17//14 13//14
f 45//15 46//15 17//15
f 18//16 20//16 16//16
f 47//17 48//17 20//17
f 10//18 9//18 19//18
f 14//6 44//6 2//6
f 49//3 50//3 23//3
f 51//3 52//3 26//3
f 53//3 54//3 29//3
f 55//3 56//3 32//3
f 57//17 58//17 28//17
f 22//11 21//11 34//11
f 61//13 62//13 25//13
f 31//15 30//15 38//15
f 50//3 12//3 10//3
f 6//1 42//1 41//1
f 41//1 3//1 4//1
f 4//1 7//1 8//1
f 8//1 5//1 6//1
f 6//1 41//1 4//1
f 16//2 20//2 45//2
f 12//3 26//3 52//3
f 52//3 55//3 15//3
f 32//3 15//3 55//3
f 13//4 17//4 43//4
f 19//5 9//5 47//5
f 24//6 22//6 61//6
f 30//4 25//4 38//4
f 59//3 39//3 40//3
f 40//3 64//3 63//3
f 63//3 35//3 36//3
f 36//3 60//3 59//3
f 59//3 40//3 63//3
f 21//5 28//5 34//5
f 27//2 31//2 57//2
f 15//3 32//3 56//3
f 56//3 53//3 18//3
f 29//3 18//3 53//3
f 18//3 29//3 54//3
f 54//3 49//3 10//3
f 23//3 10//3 49//3
f 1//11 9//11 2//11
f 10//12 12//12 11//12
f 13//13 43//13 14//13
f 12//14 15//14 13//14
f 16//15 45//15 17//15
f 15//16 18//16 16//16
f 19//17 47//17 20//17
f 18//18 10//18 19//18
f 11//6 14//6 2//6
f 27//17 57//17 28//17
f 33//11 22//11 34//11
f 24//13 61//13 25//13
f 37//15 31//15 38//15
f 10//3 23//3 50//3
f 50//3 51//3 12//3
f 26//3 12//3 51//3
